<?xml version="1.0" encoding="UTF-8"?>
<svg version="1.1" viewBox="0 0 2048 712" width="512" height="178" xmlns="http://www.w3.org/2000/svg">
<path transform="translate(0)" d="m0 0h2048v712h-2048z" fill="none"/>
<path transform="translate(403,435)" d="m0 0h94l19 4 13 5 10 6 8 9 6 12 2 7v17l-4 13-6 8-7 7-6 4-1 2 5 1 11 7 8 8 8 16 2 9v13l-4 16-6 10-8 8-14 7-16 4-9 1h-105l-1-51v-122z" fill="#403F40"/>
<path transform="translate(567,115)" d="m0 0 5 2 11 9 14 12 11 9 10 8 5-1 12-10 11-9 14-12 9-7h5l10 8 15 13 11 9 16 13 14 12 11 9 17 14 11 9 17 14 10 8 13 11 11 9 15 13 14 11 15 13 11 9 14 12 14 11 12 11 1 6-4 5-6-1-14-11-14-12-17-14-13-11-11-9-13-11-11-9-13-11-14-11-13-11-11-9-14-12-14-11-14-12-11-9-13-11-11-9-16-13-8-6-12 11-14 11-12 10-1 3 4 2 11 10 11 9 17 14 16 13 14 12 10 8 17 14 22 18 14 12 13 11 11 9 13 11 11 9 5 4 2 3v5l-6 5-7-4-22-18-13-11-10-8-13-11-14-11-14-12-10-8-14-12-10-8-17-14-14-12-11-9-13-11-14-11-14-12-11-9-14-12-11-9-4-2-12 11-10 8-14 12-14 11-14 12-11 9-10 7-7 1-4-3-1-32h-41l-1 80-10 9-13 10-13 11-10 8-13 11-9 7-13 11-10 8-14 11-7 1-4-6 1-4 7-7 22-18 14-12 10-8 13-11 9-7 14-12 11-9 1-86 3-2h64l4 2 1 25 13-11 9-7 13-11 10-8 14-12 20-16z" fill="#3F3F40"/>
<path transform="translate(576,172)" d="m0 0 3 3 3 10 3 21v29l-3 21-5 16-5 12-7 12-7 9-10 9-13 8-16 7-16 4-17 2h-10l-12-3 1-5 14-16 11-11 10-8 11-9 9-9 9-12 8-14v-2l-12 16-15 15-16 12-17 13-11 9-7 7-10 14-7 14-4 16v10l3 15-1 3-5-11-4-13v-16l4-16 6-13-1-9-1-6v-20l3-17 5-14 6-10 9-10 8-7 13-8 17-8 29-10 18-8 11-7 14-13z" fill="#8FB262"/>
<path transform="translate(424,540)" d="m0 0h85l13 3 10 6 7 8 4 10v17l-3 9-8 9-12 6-6 2-7 1-82 1-1-1z" fill="#FEFEFE"/>
<path transform="translate(424,454)" d="m0 0h72l12 2 12 5 9 8 4 8 1 4v13l-4 11-7 8-11 5-13 3-9 1h-65l-1-1z" fill="#FEFEFE"/>
<path transform="translate(578,435)" d="m0 0h155v20h-67l-1 174h-20l-1-159v-15h-67v-11z" fill="#3F3E40"/>
<path transform="translate(576,172)" d="m0 0 3 3 3 10 3 21v29l-3 21-5 16-5 12-7 12-7 9-10 9-13 8-16 7-16 4-17 2h-10l-12-3 1-5 3-3 33-2 16-4 17-8 13-10 9-12 6-10 7-19 3-15v-45l-1-7-14 10-17 8-33 12-16 7-9 5-10 8-10 11-8 16-2 9-1 9v19l11-7 13-10 18-12 21-13 13-12 9-11 4-1-3 6-12 16-15 15-16 12-17 13-11 9-7 7-10 14-7 14-4 16v10l3 15-1 3-5-11-4-13v-16l4-16 6-13-1-9-1-6v-20l3-17 5-14 6-10 9-10 8-7 13-8 17-8 29-10 18-8 11-7 14-13z" fill="#403F40"/>
<path transform="translate(325,435)" d="m0 0h20l1 1v193h-21z" fill="#3F3E40"/>
<path transform="translate(1436,436)" d="m0 0h36l11 2 6 4 4 5 1 4v9l-3 6-3 3v2l7 6 2 4v13l-3 5-6 5-14 3-24 1h-14z" fill="#404040"/>
<path transform="translate(1592,435)" d="m0 0 28 1 14 2 8 5 5 7 2 6v11l-3 7-9 8h-2l4 8 10 15v3l-10-1-7-9-8-12-22-1v21l-4 2h-6l-1-9v-63z" fill="#414141"/>
<path transform="translate(1363,436)" d="m0 0h29l13 2 8 5 6 8 2 7-1 10-4 7-8 7-2 2 13 18 2 3v3h-8l-5-4-12-17-1-1h-21l-1 21-9 1-1-3z" fill="#403F40"/>
<path transform="translate(1694,444)" d="m0 0h7l10 3 8 7 4 7 2 13-2 10-6 8-5 4-7 3h-15l-9-4-8-9-3-8v-14l4-8 7-7 8-4z" fill="#FEFEFE"/>
<path transform="translate(942,567)" d="m0 0h9l10 4 6 5 5 9 1 4v12l-3 8-8 9-10 4h-12l-9-4-6-5-6-12v-14l4-8 4-5 8-5z" fill="#FEFEFE"/>
<path transform="translate(879,435)" d="m0 0 7 1 9 10 8 10 13 16 7 9 4 5 2 1v-51h10v72h-7l-7-6-13-17-12-14-11-14-1 51h-10v-72z" fill="#3F3E40"/>
<path transform="translate(1106,434)" d="m0 0 6 2 8 8 11 14 14 17 8 10 1 3h2l-1-2v-33l1-18h8l1 1 1 66-1 6h-6l-7-6-11-14-12-14-9-11-4-5-1 50h-10l-1-7v-24l1-42z" fill="#414040"/>
<path transform="translate(1e3 558)" d="m0 0 5 1 5 4 11 14 11 13 11 14 5 6 1-51h10v71h-7l-8-7-9-11-14-17-11-13-2-2v48l-1 2h-9l-1-70z" fill="#3F3F40"/>
<path transform="translate(1081,558)" d="m0 0 7 1 7 7 10 13 13 16 11 14 2 2v-52h9l1 2-1 69-8-1-10-11-11-14-12-14-7-9-2 49h-10v-71z" fill="#404040"/>
<path transform="translate(938,558)" d="m0 0h15l10 3 10 7 7 10 4 12v10l-3 10-6 9-8 7-10 4-5 1h-12l-11-3-8-6-8-9-4-10-1-10 2-10 5-10 7-8 8-5zm4 9-11 4-6 5-5 8-1 3v14l6 12 9 7 6 2h12l10-4 8-9 3-8v-12l-4-10-5-6-9-5-4-1z" fill="#404040"/>
<path transform="translate(1691,435)" d="m0 0h12l10 3 9 6 7 7 5 11 1 4v12l-4 11-6 8-7 6-10 4-4 1h-14l-11-4-9-6-7-9-4-13 1-13 4-10 9-10 10-6zm3 9-10 3-10 9-4 8v14l4 9 7 8 9 4h15l10-5 7-8 2-5 1-8-2-12-4-7-8-7-10-3z" fill="#404040"/>
<path transform="translate(1038,436)" d="m0 0h50v9h-40v21l36 1v8h-36v23h41v9l-27 1h-24l-1-66z" fill="#403F40"/>
<path transform="translate(462,42)" d="m0 0 2 1-9 37-1 2h30l-4 7-24 32-11 16-5 2 11-35 1-4h-32l6-9 13-17 13-18z" fill="#8DB061"/>
<path transform="translate(986,435)" d="m0 0h11l11 3 10 6 1 4-3 4-5-1-8-4-3-1h-16l-8 4-5 4-5 9-1 11 3 10 7 9 7 4 4 1h14l8-2 1-25 10 1v26l-5 5-11 4-5 1h-14l-11-4-6-4-7-7-5-9-1-3v-18l4-10 9-10 8-5z" fill="#403F40"/>
<path transform="translate(1217,436)" d="m0 0h50v8l-1 1h-39v21l36 1v7l-1 1h-35v23h41l1 1v8l-51 1-1-1z" fill="#3F3F40"/>
<path transform="translate(786,414)" d="m0 0h7v240h-7z" fill="#404040"/>
<path transform="translate(1284,435)" d="m0 0 8 1 1 1 1 44 3 9 4 5 7 3h11l7-3 4-4 3-9 1-47h9l1 1v45l-2 11-6 8-9 6-8 2h-12l-10-4-8-7-5-10-1-6v-35z" fill="#404040"/>
<path transform="translate(1514,435)" d="m0 0h7l1 1v38l2 13 4 6 6 4 4 1h9l8-3 4-5 2-5 1-9v-40h9l1 1v47l-2 8-4 6-7 6-6 3-5 1h-13l-10-4-8-7-4-9-2-11v-25l1-16z" fill="#404040"/>
<path transform="translate(845,559)" d="m0 0h59v9h-24v24l-1 37-1 1h-8l-1-61-24-1z" fill="#403F40"/>
<path transform="translate(1373,445)" d="m0 0h25l7 3 4 5 2 5-1 8-4 6-4 3-4 1-24 1-1-1z" fill="#FEFEFE"/>
<path transform="translate(1602,445)" d="m0 0h25l6 3 5 6 1 2v9l-4 7-8 4-12 1h-11l-2-1z" fill="#FEFEFE"/>
<path transform="translate(571,191)" d="m0 0 1 4-9 9-10 7-20 9-30 11-16 8-11 8-8 8-8 14-4 13-3 20 4 1-6 4-1-1v-19l2-15 5-12 6-9 9-10 11-9 19-9 30-11 19-8 12-7z" fill="#FEFEFE"/>
<path transform="translate(1447,475)" d="m0 0h26l9 2 5 5 1 2v8l-5 5-3 1h-33z" fill="#FEFEFE"/>
<path transform="translate(1447,445)" d="m0 0h27l8 3 2 3v10l-4 4-2 1-19 1h-12z" fill="#FEFEFE"/>
<path transform="translate(1186,436)" d="m0 0h10v71l-1 1h-8l-1-1z" fill="#3F3F40"/>
<path transform="translate(847,436)" d="m0 0h10v71l-3 1h-7z" fill="#3F3E40"/>
<path transform="translate(1549,418)" d="m0 0h5l3 4-1 5-6 1-3-2v-7z" fill="#434542"/>
<path transform="translate(1530,418)" d="m0 0 6 1 1 5-2 4h-7v-9z" fill="#414040"/>
</svg>
